<svg xmlns="http://www.w3.org/2000/svg" xmlns:xlink="http://www.w3.org/1999/xlink" width="1366" height="286" viewBox="0 0 1366 286">
  <defs>
    <clipPath id="clip-Web_1366_2">
      <rect width="1366" height="286"/>
    </clipPath>
  </defs>
  <g id="Web_1366_2" data-name="Web 1366 – 2" clip-path="url(#clip-Web_1366_2)">
    <path id="Caminho_62" data-name="Caminho 62" d="M1366-3.111S1186.482-5.126,1017.279,9.318C901.726,21.747,788.237,25.825,472.529,36.143,196.027,42.333,0-3.111,0-3.111V282.837l1366-2.4Z" transform="translate(0 3.163)" fill="#8652ef"/>
    <g id="undraw_developer_activity_bv83" transform="translate(749.034 7.356)">
      <path id="Caminho_3" data-name="Caminho 3" d="M657.565,336.084a80.5,80.5,0,0,1-3.77,24.375,83.924,83.924,0,0,1-10.6,21.761c0,24.621-18.612,45.9-45.627,56.024a101.73,101.73,0,0,1-35.622,6.29H147.513c-22.15,0-42.677-5.337-59.512-14.429a102.792,102.792,0,0,1-13.664-8.792c-18.711-14.36-30.312-34.2-30.312-56.122A81.981,81.981,0,0,1,28,316.677c0-36.052,23.878-67.052,58.086-80.739a103.839,103.839,0,0,1,14.039-4.482q2.548-.619,5.151-1.111a107.441,107.441,0,0,1,14.039-1.72q2.559-.143,5.145-.162h.947c1.9,0,3.792.059,5.668.157l.616-.934q1.134-1.691,2.322-3.347,2.146-3.018,4.5-5.946,2.465-3.091,5.146-6.084l.457-.491q1.519-1.691,3.1-3.342,4.953-5.155,10.456-10c39.684-34.735,101.853-57.1,171.744-57.1,54.383,0,104.093,13.539,142.169,35.91a104.919,104.919,0,0,1,47.295-11.1c53.788,0,97.407,39.5,97.407,88.218a81.3,81.3,0,0,1-.55,9.229C642.053,280.269,657.655,307.3,657.565,336.084Z" transform="translate(64.223 -133.38)" fill="#572cae" opacity="0.84"/>
      <path id="Caminho_4" data-name="Caminho 4" d="M252.8,257.52v8.714H244.66Q248.484,261.746,252.8,257.52Z" transform="translate(-24.951 -193.146)" fill="#91cb6d" opacity="0.2"/>
      <rect id="Retângulo_1" data-name="Retângulo 1" width="10.923" height="10.923" transform="translate(231.852 62.165)" fill="#91cb6d" opacity="0.2"/>
      <rect id="Retângulo_2" data-name="Retângulo 2" width="10.923" height="10.923" transform="translate(246.779 62.165)" fill="#91cb6d" opacity="0.2"/>
      <rect id="Retângulo_3" data-name="Retângulo 3" width="10.923" height="10.923" transform="translate(261.71 62.165)" fill="#91cb6d" opacity="0.2"/>
      <rect id="Retângulo_4" data-name="Retângulo 4" width="10.923" height="10.923" transform="translate(276.637 62.165)" fill="#91cb6d" opacity="0.2"/>
      <rect id="Retângulo_5" data-name="Retângulo 5" width="10.923" height="10.923" transform="translate(291.568 62.165)" fill="#91cb6d" opacity="0.2"/>
      <rect id="Retângulo_6" data-name="Retângulo 6" width="10.923" height="10.923" transform="translate(306.499 62.165)" fill="#91cb6d"/>
      <rect id="Retângulo_7" data-name="Retângulo 7" width="10.923" height="10.923" transform="translate(321.426 62.165)" fill="#91cb6d" opacity="0.2"/>
      <rect id="Retângulo_8" data-name="Retângulo 8" width="10.923" height="10.923" transform="translate(336.357 62.165)" fill="#91cb6d" opacity="0.2"/>
      <rect id="Retângulo_9" data-name="Retângulo 9" width="10.923" height="10.923" transform="translate(351.284 62.165)" fill="#91cb6d" opacity="0.2"/>
      <rect id="Retângulo_10" data-name="Retângulo 10" width="10.923" height="10.923" transform="translate(366.215 62.165)" fill="#91cb6d"/>
      <rect id="Retângulo_11" data-name="Retângulo 11" width="10.923" height="10.923" transform="translate(381.146 62.165)" fill="#91cb6d" opacity="0.2"/>
      <rect id="Retângulo_12" data-name="Retângulo 12" width="10.923" height="10.923" transform="translate(396.072 62.165)" fill="#91cb6d" opacity="0.2"/>
      <rect id="Retângulo_13" data-name="Retângulo 13" width="10.923" height="10.923" transform="translate(411.004 62.165)" fill="#91cb6d" opacity="0.2"/>
      <rect id="Retângulo_14" data-name="Retângulo 14" width="10.923" height="10.923" transform="translate(425.935 62.165)" fill="#91cb6d" opacity="0.2"/>
      <rect id="Retângulo_15" data-name="Retângulo 15" width="10.923" height="10.923" transform="translate(440.861 62.165)" fill="#91cb6d" opacity="0.2"/>
      <rect id="Retângulo_16" data-name="Retângulo 16" width="10.923" height="10.923" transform="translate(455.792 62.165)" fill="#91cb6d" opacity="0.2"/>
      <rect id="Retângulo_17" data-name="Retângulo 17" width="10.923" height="10.923" transform="translate(470.719 62.165)" fill="#91cb6d"/>
      <rect id="Retângulo_18" data-name="Retângulo 18" width="10.923" height="10.923" transform="translate(485.65 62.165)" fill="#91cb6d"/>
      <rect id="Retângulo_19" data-name="Retângulo 19" width="10.923" height="10.923" transform="translate(500.581 62.165)" fill="#91cb6d" opacity="0.2"/>
      <rect id="Retângulo_20" data-name="Retângulo 20" width="10.923" height="10.923" transform="translate(515.508 62.165)" fill="#91cb6d" opacity="0.2"/>
      <rect id="Retângulo_21" data-name="Retângulo 21" width="10.923" height="10.923" transform="translate(530.439 62.165)" fill="#91cb6d"/>
      <rect id="Retângulo_22" data-name="Retângulo 22" width="10.923" height="10.923" transform="translate(545.366 62.165)" fill="#91cb6d"/>
      <path id="Caminho_5" data-name="Caminho 5" d="M224.123,298.08v5.181h-3.5Q222.29,300.615,224.123,298.08Z" transform="translate(-11.205 -216.338)" fill="#91cb6d"/>
      <rect id="Retângulo_23" data-name="Retângulo 23" width="10.923" height="10.923" transform="translate(216.921 76)" fill="#91cb6d" opacity="0.2"/>
      <rect id="Retângulo_24" data-name="Retângulo 24" width="10.923" height="10.923" transform="translate(231.852 76)" fill="#91cb6d"/>
      <rect id="Retângulo_25" data-name="Retângulo 25" width="10.923" height="10.923" transform="translate(246.779 76)" fill="#91cb6d" opacity="0.2"/>
      <rect id="Retângulo_26" data-name="Retângulo 26" width="10.923" height="10.923" transform="translate(261.71 76)" fill="#91cb6d" opacity="0.7"/>
      <rect id="Retângulo_27" data-name="Retângulo 27" width="10.923" height="10.923" transform="translate(276.637 76)" fill="#91cb6d" opacity="0.2"/>
      <rect id="Retângulo_28" data-name="Retângulo 28" width="10.923" height="10.923" transform="translate(291.568 76)" fill="#91cb6d" opacity="0.4"/>
      <rect id="Retângulo_29" data-name="Retângulo 29" width="10.923" height="10.923" transform="translate(306.499 76)" fill="#91cb6d"/>
      <rect id="Retângulo_30" data-name="Retângulo 30" width="10.923" height="10.923" transform="translate(321.426 76)" fill="#91cb6d" opacity="0.4"/>
      <rect id="Retângulo_31" data-name="Retângulo 31" width="10.923" height="10.923" transform="translate(336.357 76)" fill="#91cb6d" opacity="0.2"/>
      <rect id="Retângulo_32" data-name="Retângulo 32" width="10.923" height="10.923" transform="translate(351.284 76)" fill="#91cb6d" opacity="0.4"/>
      <rect id="Retângulo_33" data-name="Retângulo 33" width="10.923" height="10.923" transform="translate(366.215 76)" fill="#91cb6d"/>
      <rect id="Retângulo_34" data-name="Retângulo 34" width="10.923" height="10.923" transform="translate(381.146 76)" fill="#91cb6d" opacity="0.4"/>
      <rect id="Retângulo_35" data-name="Retângulo 35" width="10.923" height="10.923" transform="translate(396.072 76)" fill="#91cb6d" opacity="0.4"/>
      <rect id="Retângulo_36" data-name="Retângulo 36" width="10.923" height="10.923" transform="translate(411.004 76)" fill="#91cb6d" opacity="0.2"/>
      <rect id="Retângulo_37" data-name="Retângulo 37" width="10.923" height="10.923" transform="translate(425.935 76)" fill="#91cb6d" opacity="0.4"/>
      <rect id="Retângulo_38" data-name="Retângulo 38" width="10.923" height="10.923" transform="translate(440.861 76)" fill="#91cb6d" opacity="0.4"/>
      <rect id="Retângulo_39" data-name="Retângulo 39" width="10.923" height="10.923" transform="translate(455.792 76)" fill="#91cb6d" opacity="0.2"/>
      <rect id="Retângulo_40" data-name="Retângulo 40" width="10.923" height="10.923" transform="translate(470.719 76)" fill="#91cb6d" opacity="0.2"/>
      <rect id="Retângulo_41" data-name="Retângulo 41" width="10.923" height="10.923" transform="translate(485.65 76)" fill="#91cb6d" opacity="0.4"/>
      <rect id="Retângulo_42" data-name="Retângulo 42" width="10.923" height="10.923" transform="translate(500.581 76)" fill="#91cb6d" opacity="0.2"/>
      <rect id="Retângulo_43" data-name="Retângulo 43" width="10.923" height="10.923" transform="translate(515.508 76)" fill="#91cb6d"/>
      <rect id="Retângulo_44" data-name="Retângulo 44" width="10.923" height="10.923" transform="translate(530.439 76)" fill="#91cb6d"/>
      <rect id="Retângulo_45" data-name="Retângulo 45" width="10.923" height="10.923" transform="translate(545.366 76)" fill="#91cb6d"/>
      <path id="Caminho_6" data-name="Caminho 6" d="M144.473,324.67V332.3H133.55v-3.73A74.733,74.733,0,0,1,144.473,324.67Z" transform="translate(38.582 -231.542)" fill="#91cb6d" opacity="0.2"/>
      <path id="Caminho_7" data-name="Caminho 7" d="M151.343,177.57v10.1H140.42v-8.6Z" transform="translate(46.643 -86.909)" fill="#91cb6d" opacity="0.2"/>
      <rect id="Retângulo_46" data-name="Retângulo 46" width="10.923" height="10.923" transform="translate(201.99 89.839)" fill="#91cb6d"/>
      <rect id="Retângulo_47" data-name="Retângulo 47" width="10.923" height="10.923" transform="translate(216.921 89.839)" fill="#91cb6d" opacity="0.7"/>
      <rect id="Retângulo_48" data-name="Retângulo 48" width="10.923" height="10.923" transform="translate(231.852 89.839)" fill="#91cb6d"/>
      <rect id="Retângulo_49" data-name="Retângulo 49" width="10.923" height="10.923" transform="translate(246.779 89.839)" fill="#91cb6d" opacity="0.7"/>
      <rect id="Retângulo_50" data-name="Retângulo 50" width="10.923" height="10.923" transform="translate(261.71 89.839)" fill="#91cb6d" opacity="0.7"/>
      <rect id="Retângulo_51" data-name="Retângulo 51" width="10.923" height="10.923" transform="translate(276.637 89.839)" fill="#91cb6d" opacity="0.2"/>
      <rect id="Retângulo_52" data-name="Retângulo 52" width="10.923" height="10.923" transform="translate(291.568 89.839)" fill="#91cb6d" opacity="0.4"/>
      <rect id="Retângulo_53" data-name="Retângulo 53" width="10.923" height="10.923" transform="translate(306.499 89.839)" fill="#91cb6d" opacity="0.4"/>
      <rect id="Retângulo_54" data-name="Retângulo 54" width="10.923" height="10.923" transform="translate(321.426 89.839)" fill="#91cb6d"/>
      <rect id="Retângulo_55" data-name="Retângulo 55" width="10.923" height="10.923" transform="translate(336.357 89.839)" fill="#91cb6d" opacity="0.2"/>
      <rect id="Retângulo_56" data-name="Retângulo 56" width="10.923" height="10.923" transform="translate(351.284 89.839)" fill="#91cb6d" opacity="0.4"/>
      <rect id="Retângulo_57" data-name="Retângulo 57" width="10.923" height="10.923" transform="translate(366.215 89.839)" fill="#91cb6d"/>
      <rect id="Retângulo_58" data-name="Retângulo 58" width="10.923" height="10.923" transform="translate(381.146 89.839)" fill="#91cb6d" opacity="0.2"/>
      <rect id="Retângulo_59" data-name="Retângulo 59" width="10.923" height="10.923" transform="translate(396.072 89.839)" fill="#91cb6d" opacity="0.4"/>
      <rect id="Retângulo_60" data-name="Retângulo 60" width="10.923" height="10.923" transform="translate(411.004 89.839)" fill="#91cb6d" opacity="0.2"/>
      <rect id="Retângulo_61" data-name="Retângulo 61" width="10.923" height="10.923" transform="translate(425.935 89.839)" fill="#91cb6d"/>
      <rect id="Retângulo_62" data-name="Retângulo 62" width="10.923" height="10.923" transform="translate(440.861 89.839)" fill="#91cb6d" opacity="0.2"/>
      <rect id="Retângulo_63" data-name="Retângulo 63" width="10.923" height="10.923" transform="translate(455.792 89.839)" fill="#91cb6d" opacity="0.7"/>
      <rect id="Retângulo_64" data-name="Retângulo 64" width="10.923" height="10.923" transform="translate(470.719 89.839)" fill="#91cb6d" opacity="0.7"/>
      <rect id="Retângulo_65" data-name="Retângulo 65" width="10.923" height="10.923" transform="translate(485.65 89.839)" fill="#91cb6d" opacity="0.4"/>
      <rect id="Retângulo_66" data-name="Retângulo 66" width="10.923" height="10.923" transform="translate(500.581 89.839)" fill="#91cb6d" opacity="0.2"/>
      <rect id="Retângulo_67" data-name="Retângulo 67" width="10.923" height="10.923" transform="translate(515.508 89.839)" fill="#91cb6d"/>
      <rect id="Retângulo_68" data-name="Retângulo 68" width="10.923" height="10.923" transform="translate(530.439 89.839)" fill="#91cb6d"/>
      <rect id="Retângulo_69" data-name="Retângulo 69" width="10.923" height="10.923" transform="translate(545.366 89.839)" fill="#91cb6d"/>
      <rect id="Retângulo_70" data-name="Retângulo 70" width="10.923" height="10.923" transform="translate(172.132 103.674)" fill="#91cb6d" opacity="0.2"/>
      <rect id="Retângulo_71" data-name="Retângulo 71" width="10.923" height="10.923" transform="translate(187.063 103.674)" fill="#91cb6d" opacity="0.2"/>
      <rect id="Retângulo_72" data-name="Retângulo 72" width="10.923" height="10.923" transform="translate(201.99 103.674)" fill="#91cb6d" opacity="0.2"/>
      <rect id="Retângulo_73" data-name="Retângulo 73" width="10.923" height="10.923" transform="translate(216.921 103.674)" fill="#91cb6d" opacity="0.2"/>
      <rect id="Retângulo_74" data-name="Retângulo 74" width="10.923" height="10.923" transform="translate(231.852 103.674)" fill="#91cb6d"/>
      <rect id="Retângulo_75" data-name="Retângulo 75" width="10.923" height="10.923" transform="translate(246.779 103.674)" fill="#91cb6d" opacity="0.7"/>
      <rect id="Retângulo_76" data-name="Retângulo 76" width="10.923" height="10.923" transform="translate(261.71 103.674)" fill="#91cb6d" opacity="0.7"/>
      <rect id="Retângulo_77" data-name="Retângulo 77" width="10.923" height="10.923" transform="translate(276.637 103.674)" fill="#91cb6d" opacity="0.2"/>
      <rect id="Retângulo_78" data-name="Retângulo 78" width="10.923" height="10.923" transform="translate(291.568 103.674)" fill="#91cb6d" opacity="0.2"/>
      <rect id="Retângulo_79" data-name="Retângulo 79" width="10.923" height="10.923" transform="translate(306.499 103.674)" fill="#91cb6d" opacity="0.4"/>
      <rect id="Retângulo_80" data-name="Retângulo 80" width="10.923" height="10.923" transform="translate(321.426 103.674)" fill="#91cb6d" opacity="0.4"/>
      <rect id="Retângulo_81" data-name="Retângulo 81" width="10.923" height="10.923" transform="translate(336.357 103.674)" fill="#91cb6d"/>
      <rect id="Retângulo_82" data-name="Retângulo 82" width="10.923" height="10.923" transform="translate(351.284 103.674)" fill="#91cb6d" opacity="0.2"/>
      <rect id="Retângulo_83" data-name="Retângulo 83" width="10.923" height="10.923" transform="translate(366.215 103.674)" fill="#91cb6d" opacity="0.4"/>
      <rect id="Retângulo_84" data-name="Retângulo 84" width="10.923" height="10.923" transform="translate(381.146 103.674)" fill="#91cb6d" opacity="0.4"/>
      <rect id="Retângulo_85" data-name="Retângulo 85" width="10.923" height="10.923" transform="translate(396.072 103.674)" fill="#91cb6d" opacity="0.4"/>
      <rect id="Retângulo_86" data-name="Retângulo 86" width="10.923" height="10.923" transform="translate(411.004 103.674)" fill="#91cb6d" opacity="0.4"/>
      <rect id="Retângulo_87" data-name="Retângulo 87" width="10.923" height="10.923" transform="translate(425.935 103.674)" fill="#91cb6d" opacity="0.2"/>
      <rect id="Retângulo_88" data-name="Retângulo 88" width="10.923" height="10.923" transform="translate(440.861 103.674)" fill="#91cb6d" opacity="0.2"/>
      <rect id="Retângulo_89" data-name="Retângulo 89" width="10.923" height="10.923" transform="translate(455.792 103.674)" fill="#91cb6d" opacity="0.2"/>
      <rect id="Retângulo_90" data-name="Retângulo 90" width="10.923" height="10.923" transform="translate(470.719 103.674)" fill="#91cb6d" opacity="0.2"/>
      <rect id="Retângulo_91" data-name="Retângulo 91" width="10.923" height="10.923" transform="translate(485.65 103.674)" fill="#91cb6d" opacity="0.7"/>
      <rect id="Retângulo_92" data-name="Retângulo 92" width="10.923" height="10.923" transform="translate(500.581 103.674)" fill="#91cb6d" opacity="0.7"/>
      <rect id="Retângulo_93" data-name="Retângulo 93" width="10.923" height="10.923" transform="translate(515.508 103.674)" fill="#91cb6d" opacity="0.4"/>
      <rect id="Retângulo_94" data-name="Retângulo 94" width="10.923" height="10.923" transform="translate(530.439 103.674)" fill="#91cb6d" opacity="0.2"/>
      <rect id="Retângulo_95" data-name="Retângulo 95" width="10.923" height="10.923" transform="translate(545.366 103.674)" fill="#91cb6d"/>
      <rect id="Retângulo_96" data-name="Retângulo 96" width="10.923" height="10.923" transform="translate(172.132 117.513)" fill="#91cb6d" opacity="0.2"/>
      <rect id="Retângulo_97" data-name="Retângulo 97" width="10.923" height="10.923" transform="translate(187.063 117.513)" fill="#91cb6d" opacity="0.2"/>
      <rect id="Retângulo_98" data-name="Retângulo 98" width="10.923" height="10.923" transform="translate(201.99 117.513)" fill="#91cb6d" opacity="0.4"/>
      <rect id="Retângulo_99" data-name="Retângulo 99" width="10.923" height="10.923" transform="translate(216.921 117.513)" fill="#91cb6d" opacity="0.2"/>
      <rect id="Retângulo_100" data-name="Retângulo 100" width="10.923" height="10.923" transform="translate(231.852 117.513)" fill="#91cb6d" opacity="0.2"/>
      <rect id="Retângulo_101" data-name="Retângulo 101" width="10.923" height="10.923" transform="translate(246.779 117.513)" fill="#91cb6d" opacity="0.7"/>
      <rect id="Retângulo_102" data-name="Retângulo 102" width="10.923" height="10.923" transform="translate(261.71 117.513)" fill="#91cb6d" opacity="0.7"/>
      <rect id="Retângulo_103" data-name="Retângulo 103" width="10.923" height="10.923" transform="translate(276.637 117.513)" fill="#91cb6d" opacity="0.2"/>
      <rect id="Retângulo_104" data-name="Retângulo 104" width="10.923" height="10.923" transform="translate(291.568 117.513)" fill="#91cb6d" opacity="0.2"/>
      <rect id="Retângulo_105" data-name="Retângulo 105" width="10.923" height="10.923" transform="translate(306.499 117.513)" fill="#91cb6d" opacity="0.4"/>
      <rect id="Retângulo_106" data-name="Retângulo 106" width="10.923" height="10.923" transform="translate(321.426 117.513)" fill="#91cb6d"/>
      <rect id="Retângulo_107" data-name="Retângulo 107" width="10.923" height="10.923" transform="translate(336.357 117.513)" fill="#91cb6d" opacity="0.2"/>
      <rect id="Retângulo_108" data-name="Retângulo 108" width="10.923" height="10.923" transform="translate(351.284 117.513)" fill="#91cb6d"/>
      <rect id="Retângulo_109" data-name="Retângulo 109" width="10.923" height="10.923" transform="translate(366.215 117.513)" fill="#91cb6d"/>
      <rect id="Retângulo_110" data-name="Retângulo 110" width="10.923" height="10.923" transform="translate(381.146 117.513)" fill="#91cb6d"/>
      <rect id="Retângulo_111" data-name="Retângulo 111" width="10.923" height="10.923" transform="translate(396.072 117.513)" fill="#91cb6d" opacity="0.2"/>
      <rect id="Retângulo_112" data-name="Retângulo 112" width="10.923" height="10.923" transform="translate(411.004 117.513)" fill="#91cb6d"/>
      <rect id="Retângulo_113" data-name="Retângulo 113" width="10.923" height="10.923" transform="translate(425.935 117.513)" fill="#91cb6d" opacity="0.2"/>
      <rect id="Retângulo_114" data-name="Retângulo 114" width="10.923" height="10.923" transform="translate(440.861 117.513)" fill="#91cb6d" opacity="0.2"/>
      <rect id="Retângulo_115" data-name="Retângulo 115" width="10.923" height="10.923" transform="translate(455.792 117.513)" fill="#91cb6d" opacity="0.2"/>
      <rect id="Retângulo_116" data-name="Retângulo 116" width="10.923" height="10.923" transform="translate(470.719 117.513)" fill="#91cb6d" opacity="0.2"/>
      <rect id="Retângulo_117" data-name="Retângulo 117" width="10.923" height="10.923" transform="translate(485.65 117.513)" fill="#91cb6d" opacity="0.2"/>
      <rect id="Retângulo_118" data-name="Retângulo 118" width="10.923" height="10.923" transform="translate(500.581 117.513)" fill="#91cb6d" opacity="0.7"/>
      <rect id="Retângulo_119" data-name="Retângulo 119" width="10.923" height="10.923" transform="translate(515.508 117.513)" fill="#91cb6d" opacity="0.2"/>
      <rect id="Retângulo_120" data-name="Retângulo 120" width="10.923" height="10.923" transform="translate(530.439 117.513)" fill="#91cb6d" opacity="0.2"/>
      <rect id="Retângulo_121" data-name="Retângulo 121" width="10.923" height="10.923" transform="translate(545.366 117.513)" fill="#91cb6d"/>
      <rect id="Retângulo_122" data-name="Retângulo 122" width="10.923" height="10.923" transform="translate(172.132 131.348)" fill="#91cb6d" opacity="0.2"/>
      <rect id="Retângulo_123" data-name="Retângulo 123" width="10.923" height="10.923" transform="translate(187.063 131.348)" fill="#91cb6d" opacity="0.2"/>
      <rect id="Retângulo_124" data-name="Retângulo 124" width="10.923" height="10.923" transform="translate(201.99 131.348)" fill="#91cb6d" opacity="0.2"/>
      <rect id="Retângulo_125" data-name="Retângulo 125" width="10.923" height="10.923" transform="translate(216.921 131.348)" fill="#91cb6d" opacity="0.4"/>
      <rect id="Retângulo_126" data-name="Retângulo 126" width="10.923" height="10.923" transform="translate(231.852 131.348)" fill="#91cb6d" opacity="0.2"/>
      <rect id="Retângulo_127" data-name="Retângulo 127" width="10.923" height="10.923" transform="translate(246.779 131.348)" fill="#91cb6d" opacity="0.2"/>
      <rect id="Retângulo_128" data-name="Retângulo 128" width="10.923" height="10.923" transform="translate(261.71 131.348)" fill="#91cb6d" opacity="0.7"/>
      <rect id="Retângulo_129" data-name="Retângulo 129" width="10.923" height="10.923" transform="translate(276.637 131.348)" fill="#91cb6d" opacity="0.2"/>
      <rect id="Retângulo_130" data-name="Retângulo 130" width="10.923" height="10.923" transform="translate(291.568 131.348)" fill="#91cb6d" opacity="0.2"/>
      <rect id="Retângulo_131" data-name="Retângulo 131" width="10.923" height="10.923" transform="translate(306.499 131.348)" fill="#91cb6d" opacity="0.2"/>
      <rect id="Retângulo_132" data-name="Retângulo 132" width="10.923" height="10.923" transform="translate(321.426 131.348)" fill="#91cb6d"/>
      <rect id="Retângulo_133" data-name="Retângulo 133" width="10.923" height="10.923" transform="translate(336.357 131.348)" fill="#91cb6d" opacity="0.2"/>
      <rect id="Retângulo_134" data-name="Retângulo 134" width="10.923" height="10.923" transform="translate(351.284 131.348)" fill="#91cb6d"/>
      <rect id="Retângulo_135" data-name="Retângulo 135" width="10.923" height="10.923" transform="translate(366.215 131.348)" fill="#91cb6d"/>
      <rect id="Retângulo_136" data-name="Retângulo 136" width="10.923" height="10.923" transform="translate(381.146 131.348)" fill="#91cb6d" opacity="0.2"/>
      <rect id="Retângulo_137" data-name="Retângulo 137" width="10.923" height="10.923" transform="translate(396.072 131.348)" fill="#91cb6d" opacity="0.2"/>
      <rect id="Retângulo_138" data-name="Retângulo 138" width="10.923" height="10.923" transform="translate(411.004 131.348)" fill="#91cb6d" opacity="0.2"/>
      <rect id="Retângulo_139" data-name="Retângulo 139" width="10.923" height="10.923" transform="translate(425.935 131.348)" fill="#91cb6d" opacity="0.2"/>
      <rect id="Retângulo_140" data-name="Retângulo 140" width="10.923" height="10.923" transform="translate(440.861 131.348)" fill="#91cb6d" opacity="0.2"/>
      <rect id="Retângulo_141" data-name="Retângulo 141" width="10.923" height="10.923" transform="translate(455.792 131.348)" fill="#91cb6d" opacity="0.2"/>
      <rect id="Retângulo_142" data-name="Retângulo 142" width="10.923" height="10.923" transform="translate(470.719 131.348)" fill="#91cb6d" opacity="0.2"/>
      <rect id="Retângulo_143" data-name="Retângulo 143" width="10.923" height="10.923" transform="translate(485.65 131.348)" fill="#91cb6d" opacity="0.2"/>
      <rect id="Retângulo_144" data-name="Retângulo 144" width="10.923" height="10.923" transform="translate(500.581 131.348)" fill="#91cb6d" opacity="0.2"/>
      <rect id="Retângulo_145" data-name="Retângulo 145" width="10.923" height="10.923" transform="translate(515.508 131.348)" fill="#91cb6d" opacity="0.2"/>
      <rect id="Retângulo_146" data-name="Retângulo 146" width="10.923" height="10.923" transform="translate(530.439 131.348)" fill="#91cb6d" opacity="0.4"/>
      <rect id="Retângulo_147" data-name="Retângulo 147" width="10.923" height="10.923" transform="translate(545.366 131.348)" fill="#91cb6d"/>
      <rect id="Retângulo_148" data-name="Retângulo 148" width="10.923" height="10.923" transform="translate(172.132 145.187)" fill="#91cb6d" opacity="0.7"/>
      <rect id="Retângulo_149" data-name="Retângulo 149" width="10.923" height="10.923" transform="translate(187.063 145.187)" fill="#91cb6d" opacity="0.7"/>
      <rect id="Retângulo_150" data-name="Retângulo 150" width="10.923" height="10.923" transform="translate(201.99 145.187)" fill="#91cb6d" opacity="0.7"/>
      <rect id="Retângulo_151" data-name="Retângulo 151" width="10.923" height="10.923" transform="translate(216.921 145.187)" fill="#91cb6d" opacity="0.7"/>
      <rect id="Retângulo_152" data-name="Retângulo 152" width="10.923" height="10.923" transform="translate(231.852 145.187)" fill="#91cb6d" opacity="0.7"/>
      <rect id="Retângulo_153" data-name="Retângulo 153" width="10.923" height="10.923" transform="translate(246.779 145.187)" fill="#91cb6d" opacity="0.2"/>
      <rect id="Retângulo_154" data-name="Retângulo 154" width="10.923" height="10.923" transform="translate(261.71 145.187)" fill="#91cb6d" opacity="0.2"/>
      <rect id="Retângulo_155" data-name="Retângulo 155" width="10.923" height="10.923" transform="translate(276.637 145.187)" fill="#91cb6d" opacity="0.2"/>
      <rect id="Retângulo_156" data-name="Retângulo 156" width="10.923" height="10.923" transform="translate(291.568 145.187)" fill="#91cb6d" opacity="0.2"/>
      <rect id="Retângulo_157" data-name="Retângulo 157" width="10.923" height="10.923" transform="translate(306.499 145.187)" fill="#91cb6d" opacity="0.2"/>
      <rect id="Retângulo_158" data-name="Retângulo 158" width="10.923" height="10.923" transform="translate(321.426 145.187)" fill="#91cb6d" opacity="0.2"/>
      <rect id="Retângulo_159" data-name="Retângulo 159" width="10.923" height="10.923" transform="translate(336.357 145.187)" fill="#91cb6d"/>
      <rect id="Retângulo_160" data-name="Retângulo 160" width="10.923" height="10.923" transform="translate(351.284 145.187)" fill="#91cb6d" opacity="0.2"/>
      <rect id="Retângulo_161" data-name="Retângulo 161" width="10.923" height="10.923" transform="translate(366.215 145.187)" fill="#91cb6d" opacity="0.2"/>
      <rect id="Retângulo_162" data-name="Retângulo 162" width="10.923" height="10.923" transform="translate(381.146 145.187)" fill="#91cb6d" opacity="0.2"/>
      <rect id="Retângulo_163" data-name="Retângulo 163" width="10.923" height="10.923" transform="translate(396.072 145.187)" fill="#91cb6d"/>
      <rect id="Retângulo_164" data-name="Retângulo 164" width="10.923" height="10.923" transform="translate(411.004 145.187)" fill="#91cb6d" opacity="0.2"/>
      <rect id="Retângulo_165" data-name="Retângulo 165" width="10.923" height="10.923" transform="translate(425.935 145.187)" fill="#91cb6d" opacity="0.2"/>
      <rect id="Retângulo_166" data-name="Retângulo 166" width="10.923" height="10.923" transform="translate(440.861 145.187)" fill="#91cb6d" opacity="0.2"/>
      <rect id="Retângulo_167" data-name="Retângulo 167" width="10.923" height="10.923" transform="translate(455.792 145.187)" fill="#91cb6d" opacity="0.2"/>
      <rect id="Retângulo_168" data-name="Retângulo 168" width="10.923" height="10.923" transform="translate(470.719 145.187)" fill="#91cb6d" opacity="0.2"/>
      <rect id="Retângulo_169" data-name="Retângulo 169" width="10.923" height="10.923" transform="translate(485.65 145.187)" fill="#91cb6d" opacity="0.2"/>
      <rect id="Retângulo_170" data-name="Retângulo 170" width="10.923" height="10.923" transform="translate(500.581 145.187)" fill="#91cb6d" opacity="0.2"/>
      <rect id="Retângulo_171" data-name="Retângulo 171" width="10.923" height="10.923" transform="translate(515.508 145.187)" fill="#91cb6d" opacity="0.2"/>
      <rect id="Retângulo_172" data-name="Retângulo 172" width="10.923" height="10.923" transform="translate(530.439 145.187)" fill="#91cb6d" opacity="0.2"/>
      <rect id="Retângulo_173" data-name="Retângulo 173" width="10.923" height="10.923" transform="translate(545.366 145.187)" fill="#91cb6d"/>
      <circle id="Elipse_1" data-name="Elipse 1" cx="14.931" cy="14.931" r="14.931" transform="translate(426.521 155.511)" fill="#767d9f"/>
      <path id="Caminho_8" data-name="Caminho 8" d="M760.2,445.6q2.235,9.754,3.794,19.654a11.447,11.447,0,0,1-.12,5.883,20.332,20.332,0,0,1-2.758,4.106c-.951,1.353-1.67,3.087-1.092,4.637s2.265,2.4,3.875,2.835c4.607,1.242,9.519.338,14.1-1.006a22.818,22.818,0,0,0,5.913-2.449,22.126,22.126,0,0,0,5-4.71c6.684-8.106,11.06-17.834,15.18-27.5a16.751,16.751,0,0,1-14.178-5.712c-1.687-1.983-2.924-4.744-1.974-7.168-2.788,1.529-6.1,1.631-9.1,2.676a32.322,32.322,0,0,0-5.352,2.633q-3.075,1.777-6.115,3.622C765.063,444.5,762.892,445.74,760.2,445.6Z" transform="translate(-319.522 -294.156)" fill="#cea98e"/>
      <path id="Caminho_9" data-name="Caminho 9" d="M747.7,468.647c-2.616,5.091-6.021,9.985-10.88,13.017s-11.4,3.854-16.271.856c-2.4-1.464-4.213-3.691-6.307-5.566s-4.71-3.481-7.523-3.237c-3.1.27-5.528,2.689-7.6,5.006a59.475,59.475,0,0,0-8.427,11.356c-4.282,8.007-5.3,17.367-5.108,26.445s1.5,18.108,1.533,27.186c.043,11.167-1.85,22.245-3.764,33.245,17.6-2.167,35.219,2.569,52.856,4.363,11.287,1.161,22.66,1.135,34.007,1.1,2,0,4.119-.051,5.781-1.156a7.792,7.792,0,0,0,2.394-2.843,27.207,27.207,0,0,0,2.633-9.446c1.109-8.23,1.143-16.562,1.173-24.869.077-20.125.15-40.323-2.406-60.289a56.82,56.82,0,0,0-3.318-14.443c-1.884-4.595-4.958-8.821-9.257-11.283-2.762-1.584-9.163-4.342-12.418-2.745C751.141,457.128,749.454,465.238,747.7,468.647Z" transform="translate(-275.798 -305.99)" fill="#dfbd37"/>
      <path id="Caminho_10" data-name="Caminho 10" d="M831.693,520.775c-.664-12.418-3.366-25.67,2.385-36.692,1.413-2.706-3.657-6.085-2.09-8.705a39.431,39.431,0,0,0,4.308-10.247,7.731,7.731,0,0,0,.278-3.789c-.569-2.265-2.809-3.614-4.71-4.993-2.1-1.524-3.177-6.17-3.854-8.684s5.382.514,7.819-.381c3.383-1.237,7.682-.458,11.056.8a18.454,18.454,0,0,0,5.939.8,78.242,78.242,0,0,0,11.685-.278,29.063,29.063,0,0,1,5.228-.45c4.458.253,8.333,3.3,10.97,6.907s4.316,7.806,6.479,11.711c1.8,3.254,3.952,6.329,5.489,9.716a59.8,59.8,0,0,1,3.074,9.42l2.2,8.217a10.957,10.957,0,0,1,.539,3.644,10.348,10.348,0,0,1-1.284,3.708,70.289,70.289,0,0,1-7.995,12.2c-4.62,5.665-10.229,10.773-12.974,17.556a44.351,44.351,0,0,0-2.209,8.251,303.15,303.15,0,0,0-4.667,33.891,74.6,74.6,0,0,0-15.638-5.228,76.075,76.075,0,0,0-8.136-1.285c-2.394-.248-5.481.223-7.759-.428-3.811-1.083-4.23-7.528-4.808-10.9a99.556,99.556,0,0,1-1.143-16.271C831.829,533.089,832.022,526.928,831.693,520.775Z" transform="translate(-358.485 -301.288)"/>
      <path id="Caminho_11" data-name="Caminho 11" d="M591.859,557.82c1.8,10.277,3.79,20.583,7.708,30.239-.1.094-.2.18-.3.265-.347.3-.707.574-1.083.856a14.423,14.423,0,0,0-2.569,1.944,3.426,3.426,0,0,0-.642,1.049,2.347,2.347,0,0,0,0,1.914c-2.042.9-4.415.625-6.705.54-1.974-.073-3.888,0-5.472,1.083-2.2,1.516-2.865,4.427-3.22,7.074q-.2,1.447-.338,2.9-.137,1.349-.223,2.706a80.762,80.762,0,0,0-.081,8.992q.034.822.09,1.644c-7-.167-13.372-3.815-19.406-7.361a10.7,10.7,0,0,1-3.7-3,6.765,6.765,0,0,1-.989-4.406,4.86,4.86,0,0,1,.068-.651,17.81,17.81,0,0,1,.981-3.717,45.9,45.9,0,0,1,8.217-13.98c1.533-1.79,3.259-3.541,3.974-5.789.313-.98.428-2.021.745-3,1.422-4.231,6.551-6.23,8.307-10.337a31.363,31.363,0,0,1,1.156-3,7.548,7.548,0,0,1,1.82-2.034c.313-.261.638-.514.959-.767q4.513-3.537,8.7-7.472.779-.732,1.542-1.482A25.466,25.466,0,0,0,591.859,557.82Z" transform="translate(-202.342 -361.554)"/>
      <path id="Caminho_12" data-name="Caminho 12" d="M683.8,482.1c-.617.651-1.285,1.263-1.94,1.871l-.175.158-.694.642a16.7,16.7,0,0,0-3.233,3.764l-.073.12c-2.184,3.909-1.375,8.722-.767,13.163a112,112,0,0,1,1.015,16.7c-.111,7.707-1.019,15.364-1.036,23.063q0,2.62.116,5.237c.124,2.839.338,5.674.6,8.508.278,3.109.612,6.213.925,9.317.248,2.4.484,4.8.681,7.2.1,1.242.193,2.479.27,3.721.09,1.456.163,2.916.206,4.372h0c.03.925.047,1.846.047,2.771v1.571q0,1.5-.081,3-.086,1.923-.261,3.854a6.248,6.248,0,0,1-1.353,3.914c-.06.06-.124.116-.188.171l-1.387-.171a142.458,142.458,0,0,0-28.817-.514c.21-1.447.4-2.89.591-4.342.086-.685.171-1.375.253-2.064q.141-1.182.27-2.364.148-1.284.274-2.569.334-3.31.587-6.624.373-4.834.565-9.686.094-2.317.146-4.637.073-2.877.068-5.759,0-2.8-.047-5.609c0-.617-.026-1.233-.077-1.845a11.718,11.718,0,0,0-.227-1.64,21.365,21.365,0,0,0-1.285-3.631c-.094-.223-.184-.428-.274-.664-.051-.116-.1-.236-.146-.351,2.466-2.2,4.222-5.138,5.909-8.033,2.736-4.663,5.536-9.532,5.995-14.918s-2.218-11.437-7.365-13.081a35.777,35.777,0,0,0-4.325-.8,19,19,0,0,1-5.776-1.76q-1.284,1.319-2.569,2.591a9.483,9.483,0,0,1,.929-3.73l.608.03a1.158,1.158,0,0,1-.069-.428,2.25,2.25,0,0,1,.993-1.55c2.017-1.713,5.19-2.094,6.461-4.41a32.17,32.17,0,0,0,1.049-3.122c1.229-2.882,4.757-3.944,6.881-6.247s2.655-5.566,4.372-8.136a12.255,12.255,0,0,1,5.138-4.282c.171-.081.347-.163.522-.236a29.654,29.654,0,0,1,11.458-1.858c1.43,0,5.138.043,6.954.766a2.277,2.277,0,0,1,.792.484C688.236,476.127,685.226,480.576,683.8,482.1Z" transform="translate(-251.13 -316.227)"/>
      <path id="Caminho_13" data-name="Caminho 13" d="M632.016,541.212a26.068,26.068,0,0,1,20.014,2.085,18.929,18.929,0,0,1,7.545,7.185c2.548,4.625,2.437,10.2,2.257,15.479-.09,2.642-.206,5.378-1.37,7.75-1.349,2.745-3.892,4.629-6.487,6.17a18.089,18.089,0,0,1-5.275,2.282c-2.877.625-5.866.094-8.765-.428-3.151-.582-6.534-1.285-8.722-3.631a14.9,14.9,0,0,1-2.681-4.86q-1.494-3.747-3-7.485c-1.734-4.329-2.321-7.93-.03-12.148,1.04-1.922,2.312-3.721,3.34-5.656C629.356,546.971,631.2,541.465,632.016,541.212Z" transform="translate(-241.861 -354.73)"/>
      <path id="Caminho_14" data-name="Caminho 14" d="M533.523,681.858v12.8a71.638,71.638,0,0,1-27.717,5.481H390.327c-.06.06-.124.116-.188.171l-1.387-.171H183.335a89.477,89.477,0,0,1-46.3-12.572V668.023l98.792-11.4h.077l57.532,4.873,14.888,1.285,7.733.655,16.006,1.357,8.234.7,11.989,1.019,1.687.141,8.641.732,11.724.963,16.485,1.4,27.481,2.334,19.333,1.64,31.746,2.693,6.037.51.651.056.565.047,7.973.677,8.752.745,1.015.086Z" transform="translate(36.593 -421.354)" fill="#504f60"/>
      <path id="Caminho_15" data-name="Caminho 15" d="M592.257,544.9,468.45,523.77l-4.8,24.274,56.753,6.8,17.475,2.188,48.069-9.467Z" transform="translate(-138.182 -284.869)" fill="#9c9ca1"/>
      <path id="Caminho_16" data-name="Caminho 16" d="M642.33,724.318l62.028-11.66a2.141,2.141,0,0,1,2.544,2.111h0a2.141,2.141,0,0,1-1.751,2.111l-60.576,11.343Z" transform="translate(-252.342 -453.376)" fill="#9c9ca1"/>
      <path id="Caminho_17" data-name="Caminho 17" d="M640.7,643.237a16,16,0,0,0,5.626-1.34c2.141-1.066,3.807-2.9,5.789-4.256a17.243,17.243,0,0,1,15.188-1.678,24.466,24.466,0,0,1,12.088,9.81c1.94,2.933,3.4,6.676,2.025,9.913a13.07,13.07,0,0,1-1.764,2.757l-3.571,4.667a12.415,12.415,0,0,1-2.423,2.608,10.3,10.3,0,0,1-4.633,1.61c-4.346.634-8.769.274-13.15.565-7.523.5-14.871,2.925-22.412,2.843a67.539,67.539,0,0,1-12.846-1.794l-18.742-3.854c-3.263-.668-6.95-1.644-8.487-4.6a10.671,10.671,0,0,1-.9-4.372c-.223-4.128,0-8.718,2.86-11.694,2.689-2.792,6.941-3.674,10.152-5.738,3.931-2.531,5.228-1.713,9.373.188A51.383,51.383,0,0,0,640.7,643.237Z" transform="translate(-223.809 -408.96)" fill="#ae6e79"/>
      <path id="Caminho_18" data-name="Caminho 18" d="M640.7,643.237a16,16,0,0,0,5.626-1.34c2.141-1.066,3.807-2.9,5.789-4.256a17.243,17.243,0,0,1,15.188-1.678,24.466,24.466,0,0,1,12.088,9.81c1.94,2.933,3.4,6.676,2.025,9.913a13.07,13.07,0,0,1-1.764,2.757l-3.571,4.667a12.415,12.415,0,0,1-2.423,2.608,10.3,10.3,0,0,1-4.633,1.61c-4.346.634-8.769.274-13.15.565-7.523.5-14.871,2.925-22.412,2.843a67.539,67.539,0,0,1-12.846-1.794l-18.742-3.854c-3.263-.668-6.95-1.644-8.487-4.6a10.671,10.671,0,0,1-.9-4.372c-.223-4.128,0-8.718,2.86-11.694,2.689-2.792,6.941-3.674,10.152-5.738,3.931-2.531,5.228-1.713,9.373.188A51.383,51.383,0,0,0,640.7,643.237Z" transform="translate(-223.809 -408.96)" fill="#cea98e" opacity="0.64"/>
      <path id="Caminho_19" data-name="Caminho 19" d="M732.879,637.673a111.063,111.063,0,0,1-16.053,5.288c-9.232,2.034-18.892,1.713-28.051,4.038-4.839,1.233-9.647,3.22-14.619,2.818a43.8,43.8,0,0,1-6.53-1.37c-12.148-3-25.957-2.025-35.823,5.682a44.576,44.576,0,0,0-8.641,9.42,6.294,6.294,0,0,0,2.531,9.369,37.088,37.088,0,0,0,12.152,3.242c5.622.5,11.27-.3,16.862-1.1,8.3-1.177,16.6-2.359,24.878-3.682,2.972-.475,5.943-.968,8.932-1.345,21.508-2.719,43.406.587,64.97-1.683a19.846,19.846,0,0,0,6.38-1.46c5.018-2.355,7.5-8.564,6.466-14.019s-5.035-9.99-9.848-12.773c-4.034-2.342-8.384-3.288-12.876-4.282C739.438,634.847,736.895,636.132,732.879,637.673Z" transform="translate(-240.72 -409.267)" fill="#cea98e"/>
      <path id="Caminho_20" data-name="Caminho 20" d="M913.764,540.054c2.372,3.109,2.877,7.279,2.62,11.172s-1.182,7.742-1.319,11.651c-.188,5.361,1.1,10.7.886,16.049a46.174,46.174,0,0,1-2.089,10.992c-1.238,4.235-3.027,8.787-6.937,10.82-5.19,2.7-16.074,1.182-21.534,3.3.5-3.1,5.258-7.579,5.755-10.675a19.93,19.93,0,0,0,.321-6.487,14.346,14.346,0,0,0-3.982-7.185,21.013,21.013,0,0,0-11.334-6.423c-4.346-.788-14.987-.141-18.464,2.6-.428-2.835,7.536-5.566,10.337-6.179,1.4-.313,3-.137,4.115-1.023,2.141-1.679.587-5.023.689-7.708.081-2.141,1.332-4.1,1.584-6.243.428-3.425-1.807-6.915-.929-10.277a26.645,26.645,0,0,1,1.55-3.516c1.524-3.618.856-7.746.043-11.591-.505-2.415-1-5.138.347-7.2,1.246-1.923,4.783,4.924,7.048,4.607,7.48-1.049,14.25-6.594,20.292-2.055,3.079,2.312,3.481,4.71,4.71,8.012C908.668,535.841,911.764,537.451,913.764,540.054Z" transform="translate(-375.476 -344.259)" opacity="0.1"/>
      <path id="Caminho_21" data-name="Caminho 21" d="M916.764,536.188c2.372,3.109,2.877,7.279,2.621,11.172s-1.182,7.742-1.319,11.651c-.188,5.361,1.1,10.7.886,16.049a46.164,46.164,0,0,1-2.09,10.992c-1.237,4.235-3.027,8.786-6.937,10.82-5.19,2.7-16.074,1.182-21.534,3.3.5-3.1,5.258-7.579,5.755-10.675a19.931,19.931,0,0,0,.321-6.487,14.347,14.347,0,0,0-3.982-7.185,21.012,21.012,0,0,0-11.334-6.423c-4.346-.788-14.987-.141-18.464,2.6-.428-2.835,7.536-5.567,10.337-6.179,1.4-.312,3-.137,4.115-1.023,2.141-1.679.587-5.023.689-7.707.081-2.141,1.332-4.1,1.584-6.243.428-3.425-1.807-6.915-.929-10.277a26.617,26.617,0,0,1,1.55-3.515c1.524-3.618.856-7.746.043-11.591-.505-2.415-1-5.138.347-7.2,1.246-1.923,3.682-2.65,5.948-2.972a29.3,29.3,0,0,1,21.41,5.524c3.079,2.312,3.481,4.71,4.71,8.012C911.668,531.975,914.764,533.585,916.764,536.188Z" transform="translate(-377.192 -340.393)"/>
      <path id="Caminho_22" data-name="Caminho 22" d="M329.749,497.764,353.03,583.8a5.374,5.374,0,0,0,4.672,3.944l104.787,10.067a5.37,5.37,0,0,0,5.729-6.628L442.723,487.4a5.369,5.369,0,0,0-5.618-4.072L334.515,491a5.37,5.37,0,0,0-4.766,6.761Z" transform="translate(-73.498 -322.257)" fill="#9c9ca1"/>
      <ellipse id="Elipse_2" data-name="Elipse 2" cx="11.518" cy="11.668" rx="11.518" ry="11.668" transform="translate(452.453 168.96)" fill="#fff"/>
      <path id="Caminho_23" data-name="Caminho 23" d="M829.652,479.064s2.428,7.219-4.736,10.255l-.916,1.6,4.488,4.427s5.532-10.093,4.933-13.677C833.42,481.672,832.564,478.032,829.652,479.064Z" transform="translate(-356.222 -319.721)" fill="#fff"/>
      <path id="Caminho_63" data-name="Caminho 63" d="M11.107,0A11.107,11.107,0,1,1,0,11.107,11.107,11.107,0,0,1,11.107,0Z" transform="translate(454.187 170.082)" fill="#2e2e2e"/>
      <path id="Caminho_24" data-name="Caminho 24" d="M827.295,459.41,825.53,456.5l-2.569-.364c.548-9.587-1.94-12.443-1.94-12.443l-.578-.056-2.518-.244-4.736-4.916v-1.4c6.654.792,10.332,3.952,12.319,7.656C829.02,451.236,827.295,459.41,827.295,459.41Z" transform="translate(-350.041 -295.819)" fill="#2e2e2e"/>
      <path id="Caminho_25" data-name="Caminho 25" d="M820.494,443.736V445.5l-2.518-.244-4.736-4.916S820.566,441.98,820.494,443.736Z" transform="translate(-350.07 -297.684)" stroke="#4c4981" stroke-miterlimit="10" stroke-width="1" opacity="0.1"/>
      <path id="Caminho_26" data-name="Caminho 26" d="M843.774,469.657l-1.764-2.912V455C845.5,461.483,843.774,469.657,843.774,469.657Z" transform="translate(-366.521 -306.066)" stroke="#4c4981" stroke-miterlimit="10" stroke-width="1" opacity="0.1"/>
      <ellipse id="Elipse_4" data-name="Elipse 4" cx="6.179" cy="11.27" rx="6.179" ry="11.27" transform="translate(428.15 169.325) rotate(-30)" fill="#fff"/>
      <path id="Caminho_27" data-name="Caminho 27" d="M744.905,504.314c3.113,5.391,6.933,8.992,3.978,10.7s-11.561.856-14.674-4.539-.287-12.846,2.668-14.559S741.788,498.911,744.905,504.314Z" transform="translate(-304.104 -329.261)" fill="#2e2e2e"/>
      <path id="Caminho_28" data-name="Caminho 28" d="M745.328,387.16c0,17.226-11.788,33.827-29.014,33.827a31.194,31.194,0,0,1,0-62.388C733.54,358.617,745.328,369.93,745.328,387.16Z" transform="translate(-276.81 -250.944)" opacity="0.1"/>
      <circle id="Elipse_5" data-name="Elipse 5" cx="31.194" cy="31.194" r="31.194" transform="translate(408.31 106.817)" fill="#cea98e"/>
      <path id="Caminho_29" data-name="Caminho 29" d="M696.164,342.94c3.713,1.366,5.909,5.2,9.241,7.339,4.71,3,10.842,2.222,16.22.741,3-.818,6.132-1.815,9.082-.908a2.571,2.571,0,0,0,1.383.2c.642-.184.959-.895,1.169-1.529,3.648-10.876,2.008-23.2-3.5-33.258a21.5,21.5,0,0,0-5.472-6.907,22.828,22.828,0,0,0-6.217-3.139,62.088,62.088,0,0,0-12.366-3.053,7.681,7.681,0,0,0-2.257-.073,9.448,9.448,0,0,0-2.877,1.22,29.452,29.452,0,0,1-12.786,3.473c-5.995.227-12.846-1.186-17.466,2.659-5.567,4.612-4.179,13.608-7.789,19.868-2.389,4.141-7,7.146-7.755,11.861a10.946,10.946,0,0,0,.27,4.312,17.546,17.546,0,0,0,16.271,13,6.175,6.175,0,0,0,3.323-.681,7.515,7.515,0,0,0,1.751-1.666C681.293,350.6,686.9,339.532,696.164,342.94Z" transform="translate(-259.4 -218.752)" fill="#444053"/>
      <path id="Caminho_30" data-name="Caminho 30" d="M733.241,389.225c-.21.634-.527,1.344-1.169,1.529a2.569,2.569,0,0,1-1.383-.2c-2.95-.908-6.1.09-9.078.908-5.383,1.482-11.527,2.274-16.22-.741-3.336-2.141-5.528-5.995-9.245-7.339-9.262-3.426-14.871,7.656-19.787,13.462a7.516,7.516,0,0,1-1.751,1.666,6.175,6.175,0,0,1-3.323.681,17.592,17.592,0,0,1-16.271-13c-.1-.428-.184-.856-.248-1.285a.207.207,0,0,1-.021.111,10.949,10.949,0,0,0,.27,4.312,17.55,17.55,0,0,0,16.271,13,6.174,6.174,0,0,0,3.323-.681,7.514,7.514,0,0,0,1.751-1.666c4.916-5.806,10.525-16.871,19.787-13.462,3.717,1.366,5.909,5.2,9.245,7.339,4.71,3,10.837,2.222,16.22.741,3-.818,6.127-1.816,9.078-.908a2.57,2.57,0,0,0,1.383.2c.642-.184.959-.895,1.169-1.529a38.664,38.664,0,0,0,1.918-13.813,38.034,38.034,0,0,1-1.918,10.675Z" transform="translate(-259.383 -262.352)" opacity="0.1"/>
    </g>
    <text id="Thanks_for_the_visit" data-name="Thanks for the visit" transform="translate(321.5 132)" fill="#fff" font-size="48" font-family="FredokaOne-Regular, Fredoka One" letter-spacing="0.039em"><tspan x="-246.312" y="0">Thanks for the visit</tspan></text>
    <text id="Feel_free_to_make_any_suggestion_about_the_projects_above." data-name="Feel free to make any suggestion 
about the projects above." transform="translate(75.5 190)" fill="#fff" font-size="24" font-family="FredokaOne-Regular, Fredoka One" letter-spacing="0.039em"><tspan x="0" y="0">Feel free to make any suggestion </tspan><tspan x="0" y="38">about the projects above.</tspan></text>
  </g>
</svg>
